<svg xmlns="http://www.w3.org/2000/svg" viewBox="0 0 400 372" width="400" height="372" role="img" aria-label="Mess Anger icon">
  <defs>
    <filter id="grunge" x="-20%" y="-20%" width="140%" height="140%">
      <feTurbulence type="fractalNoise" baseFrequency="0.016 0.024" numOctaves="2" seed="7" result="n"></feTurbulence>
      <feDisplacementMap in="SourceGraphic" in2="n" scale="6" xChannelSelector="R" yChannelSelector="G"></feDisplacementMap>
    </filter>
    <radialGradient id="ringShade" cx="50%" cy="38%" r="70%">
      <stop offset="0%" stop-color="#5a171c"></stop>
      <stop offset="100%" stop-color="#210b0d"></stop>
    </radialGradient>
  </defs>
  <g filter="url(#grunge)">
    <path d="M62 150 L62 126 A54 54 0 0 1 116 72 L284 72 A54 54 0 0 1 338 126 L338 210" fill="none" stroke="url(#ringShade)" stroke-width="24" stroke-linecap="round" stroke-linejoin="round"></path>
    <path d="M338 230 L338 238 A54 54 0 0 1 284 292 L170 292 L118 344 L146 292 L116 292 A54 54 0 0 1 62 238 L62 170" fill="none" stroke="url(#ringShade)" stroke-width="24" stroke-linecap="round" stroke-linejoin="round"></path>
    <path d="M338 202 L368 192 L346 222 Z" fill="#5a171c"></path>
    <path d="M340 240 L368 252 L346 234 Z" fill="#5a171c"></path>
    <path d="M62 202 L32 192 L54 222 Z" fill="#5a171c"></path>
    <path d="M60 240 L32 252 L54 234 Z" fill="#5a171c"></path>
    <path d="M300 74 L322 56 L286 86 Z" fill="#5a171c"></path>
    <path d="M 190 74 L 150 206 L 200 206 L 122 342 L 282 168 L 224 168 L 284 74 Z" fill="#c31f2b" stroke="#3d0a0e" stroke-width="2" stroke-linejoin="round"></path>
  </g>
</svg>